# xmcd CD database file
#
# Track frame offsets:
#	150
#	31924
#	54061
#	65429
#	79935
#	93846
#	105292
#	118560
#	131527
#	154381
#	169055
#	185135
#	196124
#	212463
#	227172
#	242389
#	258413
#	271273
#	284758
#	298231
#
# Disc length: 4180 seconds
#
# Revision: 1
# Processed by: cddbd v1.5.2PL0 Copyright (c) Steve Scherf et al.
# Submitted via: CDex 1.70beta2
#
DISCID=17105214
DTITLE=Various Artist - I love Jazz [CD3 Jazz Legends)
DYEAR=1900
DGENRE=Jazz
TTITLE0=Michel Petrucciani  So what
TTITLE1=Ahmad Jamal - It's magic
TTITLE2=Ella Fitzgerald and Louis Armstrong - Necessary Evil
TTITLE3=Sidney Bechet - Petite fleur
TTITLE4=Thelonious Monk - Monk's dream
TTITLE5=Miles Davis - Move
TTITLE6=Sonny Rollins - The stopper
TTITLE7=Bud Powell - Somebody loves me
TTITLE8=John Coltrane - Anecdac
TTITLE9=Stan Getz - I've got you under my skin
TTITLE10=Glenn Miller - In the mood
TTITLE11=Count Basie - Louisiana
TTITLE12=Errol Garner - I'm in the mood for love
TTITLE13=Charlie Parker - Now's the time
TTITLE14=Oscar Peterson - These foolish things (remind me of you)
TTITLE15=Lester Young - Almost like being in love
TTITLE16=Duke Ellington - Take the "A" Train
TTITLE17=Fats Waller - Ain't misbehavin
TTITLE18=Miles Davis and Charlie Parker - Cheryl
TTITLE19=Louis Armstrong - La vie en rose
EXTD=
EXTT0=
EXTT1=
EXTT2=
EXTT3=
EXTT4=
EXTT5=
EXTT6=
EXTT7=
EXTT8=
EXTT9=
EXTT10=
EXTT11=
EXTT12=
EXTT13=
EXTT14=
EXTT15=
EXTT16=
EXTT17=
EXTT18=
EXTT19=
PLAYORDER=
